<svg id="Capa_1" data-name="Capa 1" xmlns="http://www.w3.org/2000/svg" viewBox="0 0 16 16"><defs><style>.cls-1{fill:#121342;}.cls-2{fill:#67747d;}.cls-3{fill:#192025;}</style></defs><title>Mesa de trabajo 3</title><path class="cls-1" d="M6.14,15.5l-.12,0a10,10,0,0,1-3.88-3.91A11.45,11.45,0,0,1,.5,5.91a.28.28,0,0,1,.09-.19A.32.32,0,0,1,.8,5.64a8.51,8.51,0,0,0,3-.28.3.3,0,0,1,.35.19.28.28,0,0,1-.2.34,9.09,9.09,0,0,1-2.91.32,11.23,11.23,0,0,0,1.56,5.07,9.77,9.77,0,0,0,3.46,3.6,11.92,11.92,0,0,1,6.6-3.81,11.9,11.9,0,0,1-1.22-1,.27.27,0,0,1,0-.38.28.28,0,0,1,.4,0A8.51,8.51,0,0,0,13.61,11a.28.28,0,0,1,.16.29.27.27,0,0,1-.24.24A11.39,11.39,0,0,0,6.36,15.4.29.29,0,0,1,6.14,15.5Z"/><path class="cls-2" d="M6.55,13h0a.22.22,0,0,1-.18-.1,14.58,14.58,0,0,1-2.71-9,.25.25,0,0,1,.1-.18,10.35,10.35,0,0,1,7.7-2.46.26.26,0,0,1,.22.25,21.61,21.61,0,0,0,.37,4A7,7,0,0,0,13.74,9a.27.27,0,0,1,.06.24.26.26,0,0,1-.17.18,21.45,21.45,0,0,0-6.92,3.48A.23.23,0,0,1,6.55,13ZM4.15,4A14.06,14.06,0,0,0,6.6,12.32a22.11,22.11,0,0,1,6.5-3.27,7.84,7.84,0,0,1-1.59-3.44,21.1,21.1,0,0,1-.37-3.91A9.88,9.88,0,0,0,4.15,4Z"/><path class="cls-3" d="M7.74,8.24a.21.21,0,0,1-.16-.07.21.21,0,0,1,0-.3l4-3.79a.22.22,0,0,1,.3.31l-4,3.79A.22.22,0,0,1,7.74,8.24Z"/><path class="cls-3" d="M11.54,4.13l2-2a.21.21,0,0,1,.3,0,.2.2,0,0,1,0,.3L11.61,4.67"/><ellipse class="cls-3" cx="14.5" cy="1.54" rx="1" ry="1.04"/></svg>