<svg id="Capa_1" data-name="Capa 1" xmlns="http://www.w3.org/2000/svg" viewBox="0 0 64 64"><defs><style>.cls-1{fill:#121342;}.cls-2{fill:#67747d;}.cls-3{fill:#192025;}</style></defs><title>Mesa de trabajo 5</title><path class="cls-1" d="M24.21,63.5a1.13,1.13,0,0,1-.54-.13c-6.1-3.1-11.58-8.63-16.29-16.43C3.11,39.88.35,30.35.51,23.23a1.12,1.12,0,0,1,.37-.82,1.26,1.26,0,0,1,.87-.31,36.6,36.6,0,0,0,12.7-1.18,1.19,1.19,0,0,1,1.45.81,1.16,1.16,0,0,1-.83,1.42A37.68,37.68,0,0,1,2.86,24.47C3,31,5.58,39.42,9.4,45.76c4.27,7.06,9.15,12.14,14.52,15.12a50.28,50.28,0,0,1,27.73-16,47.07,47.07,0,0,1-5.1-4,1.14,1.14,0,0,1-.06-1.63,1.19,1.19,0,0,1,1.67-.06s4.29,3.92,7.4,5.25a1.16,1.16,0,0,1-.32,2.21A47.81,47.81,0,0,0,25.12,63.08,1.2,1.2,0,0,1,24.21,63.5Z"/><path class="cls-2" d="M25.91,52.77h-.14a1.11,1.11,0,0,1-.74-.43A61.27,61.27,0,0,1,13.66,14.62a1.07,1.07,0,0,1,.4-.78c10-8,21.77-11.75,32.33-10.32a1.07,1.07,0,0,1,.94,1,92.2,92.2,0,0,0,1.55,17c1.29,6.08,3.79,11.15,7.22,14.64a1.08,1.08,0,0,1,.28,1,1.07,1.07,0,0,1-.72.75C43.1,42.06,33.86,46.7,26.6,52.53A1.09,1.09,0,0,1,25.91,52.77ZM15.82,15.2a59.19,59.19,0,0,0,10.31,35c7-5.42,15.75-9.82,27.28-13.74A32.64,32.64,0,0,1,46.75,22,89.55,89.55,0,0,1,45.18,5.53C35.58,4.52,25,8,15.82,15.2Z"/><path class="cls-3" d="M30.9,33a.92.92,0,0,1-.65-.27.88.88,0,0,1,0-1.26l16.8-15.92a.9.9,0,0,1,1.28,0,.88.88,0,0,1,0,1.26L31.53,32.75A.88.88,0,0,1,30.9,33Z"/><path class="cls-3" d="M46.88,15.75,55.3,7.53a.92.92,0,0,1,1.28,0,.89.89,0,0,1,0,1.26L47.14,18"/><ellipse class="cls-3" cx="59.3" cy="4.85" rx="4.2" ry="4.35"/></svg>