<svg id="Capa_1" data-name="Capa 1" xmlns="http://www.w3.org/2000/svg" viewBox="0 0 32 32"><defs><style>.cls-1{fill:#121342;}.cls-2{fill:#67747d;}.cls-3{fill:#192025;}</style></defs><title>Mesa de trabajo 1</title><path class="cls-1" d="M12.17,31.5a.6.6,0,0,1-.27-.06,20.79,20.79,0,0,1-8-8.09A23.73,23.73,0,0,1,.5,11.69a.58.58,0,0,1,.61-.56,18.2,18.2,0,0,0,6.25-.58.57.57,0,1,1,.31,1.1,18.5,18.5,0,0,1-6,.64A23.13,23.13,0,0,0,4.88,22.77,20,20,0,0,0,12,30.21a24.7,24.7,0,0,1,13.64-7.86,24.88,24.88,0,0,1-2.51-2,.56.56,0,0,1,0-.8.58.58,0,0,1,.82,0,17.22,17.22,0,0,0,3.64,2.58.57.57,0,0,1-.16,1.09,23.57,23.57,0,0,0-14.82,8.08A.56.56,0,0,1,12.17,31.5Z"/><path class="cls-2" d="M13,26.22h-.07a.58.58,0,0,1-.36-.21A30.12,30.12,0,0,1,7,7.45a.54.54,0,0,1,.19-.39C12.08,3.13,17.88,1.28,23.08,2a.52.52,0,0,1,.46.51,46,46,0,0,0,.77,8.35,14.43,14.43,0,0,0,3.55,7.2.5.5,0,0,1,.13.49.52.52,0,0,1-.35.38c-6.18,2-10.72,4.31-14.3,7.18A.54.54,0,0,1,13,26.22ZM8,7.73a29.11,29.11,0,0,0,5.07,17.21,45.06,45.06,0,0,1,13.43-6.76,16.09,16.09,0,0,1-3.28-7.12A44.13,44.13,0,0,1,22.48,3C17.76,2.48,12.53,4.2,8,7.73Z"/><path class="cls-3" d="M15.46,16.49a.44.44,0,0,1-.32-.13.43.43,0,0,1,0-.62L23.41,7.9a.46.46,0,0,1,.63,0,.42.42,0,0,1,0,.62l-8.26,7.84A.47.47,0,0,1,15.46,16.49Z"/><path class="cls-3" d="M23.32,8l4.14-4a.47.47,0,0,1,.64,0,.43.43,0,0,1,0,.62L23.45,9.11"/><ellipse class="cls-3" cx="29.43" cy="2.64" rx="2.07" ry="2.14"/></svg>