<svg id="Capa_1" data-name="Capa 1" xmlns="http://www.w3.org/2000/svg" viewBox="0 0 128 128"><defs><style>.cls-1{fill:#121342;}.cls-2{fill:#67747d;}.cls-3{fill:#192025;}</style></defs><title>Mesa de trabajo 4</title><path class="cls-1" d="M48.29,127.5a2.46,2.46,0,0,1-1.09-.26C34.91,121,23.86,109.84,14.36,94.12,5.76,79.88.19,60.67.51,46.33A2.36,2.36,0,0,1,3,44.05c9.18.46,16,.22,25.6-2.39a2.39,2.39,0,0,1,2.93,1.63,2.34,2.34,0,0,1-1.66,2.87A76.06,76.06,0,0,1,5.27,48.82C5.58,62.06,10.73,79,18.45,91.74c8.6,14.24,18.44,24.48,29.27,30.47A101.39,101.39,0,0,1,103.62,90a96.44,96.44,0,0,1-10.29-8.1,2.29,2.29,0,0,1-.11-3.29,2.42,2.42,0,0,1,3.36-.12c.08.08,8.65,7.9,14.9,10.59a2.32,2.32,0,0,1-.64,4.45,96.46,96.46,0,0,0-60.72,33.12A2.39,2.39,0,0,1,48.29,127.5Z"/><path class="cls-2" d="M51.72,105.88l-.28,0A2.16,2.16,0,0,1,50,105C34.57,84.29,25.79,55.16,27,29a2.17,2.17,0,0,1,.81-1.57C48,11.29,71.71,3.7,93,6.59A2.17,2.17,0,0,1,94.9,8.68c.26,11.07.71,22.84,3.13,34.21,2.61,12.27,7.64,22.47,14.56,29.52a2.12,2.12,0,0,1,.55,2,2.16,2.16,0,0,1-1.44,1.53c-25.33,8.33-43.95,17.69-58.59,29.45A2.22,2.22,0,0,1,51.72,105.88ZM31.38,30.12c-.92,24.24,7,50.94,20.78,70.5,14.15-10.94,31.76-19.81,55-27.71-6.32-7.44-10.94-17.44-13.43-29.14-2.36-11.09-2.9-22.4-3.17-33.13C71.21,8.61,49.8,15.65,31.38,30.12Z"/><path class="cls-3" d="M61.79,66a1.83,1.83,0,0,1-1.32-.55,1.77,1.77,0,0,1,.05-2.54l33.85-32.1a1.85,1.85,0,0,1,2.58,0,1.76,1.76,0,0,1,0,2.54L63.06,65.51A1.84,1.84,0,0,1,61.79,66Z"/><path class="cls-3" d="M94,31.23l17-16.55a1.84,1.84,0,0,1,2.58,0,1.76,1.76,0,0,1,0,2.53l-19,18.55"/><ellipse class="cls-3" cx="119.02" cy="9.27" rx="8.48" ry="8.77"/></svg>