<svg id="Capa_1" data-name="Capa 1" xmlns="http://www.w3.org/2000/svg" viewBox="0 0 48 48"><defs><style>.cls-1{fill:#121342;}.cls-2{fill:#67747d;}.cls-3{fill:#192025;}</style></defs><title>Mesa de trabajo 6</title><path class="cls-1" d="M18.19,47.54a1,1,0,0,1-.41-.09C13.23,45.13,9.14,41,5.63,35.19,2.44,29.92.39,22.81.5,17.5a.86.86,0,0,1,.29-.61.87.87,0,0,1,.64-.23,27.35,27.35,0,0,0,9.47-.88.89.89,0,0,1,1.09.6.87.87,0,0,1-.62,1.06,28,28,0,0,1-9.11,1A35.1,35.1,0,0,0,7.14,34.31C10.32,39.58,14,43.37,18,45.59A37.52,37.52,0,0,1,38.66,33.67a35.16,35.16,0,0,1-3.8-3,.85.85,0,0,1,0-1.22.89.89,0,0,1,1.25,0,26.74,26.74,0,0,0,5.51,3.92.85.85,0,0,1,.52.91.86.86,0,0,1-.75.73A35.68,35.68,0,0,0,18.87,47.23.92.92,0,0,1,18.19,47.54Z"/><path class="cls-2" d="M19.45,39.54h-.1a.77.77,0,0,1-.55-.32,45.66,45.66,0,0,1-8.48-28.13.81.81,0,0,1,.3-.59c7.44-6,16.23-8.76,24.12-7.69a.8.8,0,0,1,.7.77,68.6,68.6,0,0,0,1.15,12.66A22,22,0,0,0,42,27.15a.8.8,0,0,1,.2.75.77.77,0,0,1-.53.56C32.28,31.54,25.39,35,20,39.36A.82.82,0,0,1,19.45,39.54Zm-7.52-28a44.16,44.16,0,0,0,7.69,26.08c5.23-4,11.75-7.33,20.35-10.25a24.37,24.37,0,0,1-5-10.78A67.36,67.36,0,0,1,33.83,4.29C26.67,3.54,18.74,6.15,11.93,11.51Z"/><path class="cls-3" d="M23.18,24.79a.67.67,0,0,1-.48-.2.65.65,0,0,1,0-.94L35.24,11.77a.69.69,0,0,1,1,0,.66.66,0,0,1,0,.94L23.65,24.6A.66.66,0,0,1,23.18,24.79Z"/><path class="cls-3" d="M35.1,11.92l6.28-6.13a.69.69,0,0,1,1,0,.66.66,0,0,1,0,.94l-7,6.87"/><ellipse class="cls-3" cx="44.36" cy="3.79" rx="3.14" ry="3.25"/></svg>